<svg width="67" height="66" viewBox="0 0 67 66" fill="none" xmlns="http://www.w3.org/2000/svg">
<g clip-path="url(#clip0_61_124)">
<path d="M66.3853 12.9377L60.3935 60.5382L33.4598 65.8332L6.60036 60.5455L0.614731 12.9377H66.3853Z" fill="#E44D26"/>
<path d="M33.5 61.7858L55.2638 57.5072L60.3839 16.8303H33.5V61.7858Z" fill="#F16529"/>
<path d="M21.852 28.5083H33.5V22.6694H12.8536L13.0506 24.2359L15.0744 40.3264H33.5V34.4875H22.6046L21.852 28.5083V28.5083ZM23.7078 43.2459H15.4423L16.5957 52.4139L33.4621 55.734L33.5 55.7267V49.6517L33.4639 49.6585L24.294 47.9026L23.7078 43.2459Z" fill="#EBEBEB"/>
<path d="M6.7339 0H10.9182V2.93161H14.7459V0H18.9305V8.87764H14.7462V5.9049H10.9185V8.87764H6.73416V0H6.7339ZM24.4327 2.94404H20.7496V0H32.3032V2.94404H28.6178V8.87764H24.4335V2.94404H24.4332H24.4327ZM34.1368 0H38.4998L41.1836 3.11937L43.8648 0H48.2296V8.87764H44.0623V4.4774L41.1836 7.63388H41.1114L38.2309 4.4774V8.87764H34.1368V0ZM50.3119 0H54.4975V5.94329H60.3818V8.87764H50.3117V0H50.3119Z" fill="black"/>
<path d="M33.4716 40.3264H43.6106L42.6547 47.899L33.4714 49.6567V55.7312L50.3511 52.4139L50.4749 51.4273L52.41 36.0554L52.6109 34.4875H33.4716V40.3264ZM33.4716 28.4941V28.5083H53.3601L53.5251 27.196L53.9004 24.2359L54.0972 22.6694H33.4716V28.4943V28.4941Z" fill="white"/>
</g>
<defs>
<clipPath id="clip0_61_124">
<rect width="66" height="66" fill="white" transform="translate(0.5)"/>
</clipPath>
</defs>
</svg>
