<svg width="359" height="77" viewBox="0 0 359 77" fill="none" xmlns="http://www.w3.org/2000/svg">
<path d="M115.785 29.8961C115.785 24.4432 109.529 18.652 98.7054 18.652C86.5502 18.652 73.1974 26.2106 71.1566 41.2898C69.0716 56.5199 80.2506 63.2889 91.5184 63.2889C102.787 63.2889 108.687 59.566 114.72 54.6023C109.529 49.074 102.831 51.6316 101.545 52.1956C100.125 52.797 98.3062 53.6245 94.5797 53.6245C90.2319 53.6245 85.7959 51.97 85.7959 45.0881C113.656 42.7568 115.785 35.3484 115.785 29.8961ZM101.988 30.7985C101.811 32.4904 101.012 35.3864 86.9053 37.0029C89.8775 28.0533 95.5552 27.3766 98.1731 27.3766C100.613 27.3766 102.165 28.9931 101.988 30.7985ZM54.7867 32.2648C54.7867 32.2648 48.7987 48.2091 48.3099 49.5252C48.1327 48.1717 43.7408 19.5543 43.7408 19.5543C33.5375 19.5543 28.0811 25.7214 25.1978 32.2274C25.1978 32.2274 17.9219 48.2091 17.3014 49.5626C17.2565 48.3219 16.192 32.4156 16.192 32.4156C15.5708 24.4426 6.96494 19.5923 0 19.5923L8.42867 62.9505C19.1202 62.9131 24.8868 56.7835 27.9039 50.2774C27.9039 50.2774 34.3359 36.1759 34.602 35.5366C34.6468 36.138 39.2159 62.9505 39.2159 62.9505C49.9515 62.9505 55.7188 57.1967 58.8242 50.9168L73.8627 19.5923C63.2595 19.5923 57.6707 25.7214 54.7867 32.2648ZM155.178 18.5766C148.568 18.5766 143.511 21.6227 139.252 26.0978V26.0604L143.067 0C134.284 0 127.142 6.46805 125.766 16.0944L119.111 62.6121C124.169 62.6121 129.537 61.3713 132.42 58.2124C134.993 61.0324 138.853 63.2889 144.575 63.2889C159.393 63.2889 169.551 48.6982 169.551 35.01C169.463 22.5251 162.32 18.5772 155.178 18.5772V18.5766ZM153.803 40.952C152.25 48.5855 147.237 53.7753 142.401 53.7753C137.522 53.7753 135.437 51.932 135.437 51.932C136.369 45.2383 136.945 41.1396 138.72 37.6049C140.494 34.0702 144.708 28.4291 149.1 28.4291C153.403 28.4291 155.356 33.28 153.803 40.9514V40.952ZM206.549 19.5911H196.213L196.257 19.14C196.967 13.4241 198.564 10.416 203.843 9.92737C207.436 9.62638 209.033 8.04662 209.432 6.31725C209.743 4.96368 210.719 0.262403 210.719 0.262403C189.958 0.149605 183.437 7.74622 181.751 19.3282L181.706 19.5917H181.484C178.113 19.5917 174.387 22.8255 173.766 26.9242L173.544 28.4285H180.465L174.653 69.117L172.878 76.4126C173.1 76.4126 173.367 76.45 173.588 76.45C183.304 76.149 189.514 69.6436 190.889 60.2048L195.414 28.4285H198.653C201.846 28.4285 205.573 25.7214 206.239 21.2083L206.549 19.5917V19.5911ZM260.316 18.8396C248.382 18.8396 237.114 26.2854 233.654 37.9801C230.194 49.6754 235.428 63.5139 252.996 63.5139C270.519 63.5139 280.634 49.1114 280.634 37.1151C280.634 25.1942 271.096 18.8396 260.316 18.8396ZM265.151 40.575C264.53 45.8771 261.78 53.9249 254.238 53.9249C246.652 53.9249 247.717 44.5236 248.471 40.0485C249.269 35.273 252.42 28.4659 259.207 28.4659C265.284 28.4659 265.861 34.5956 265.151 40.575ZM339.591 32.2642C339.591 32.2642 333.602 48.2085 333.113 49.5246C332.936 48.1711 328.544 19.5537 328.544 19.5537C318.341 19.5537 312.885 25.7208 310.001 32.2268C310.001 32.2268 302.725 48.2085 302.105 49.562C302.06 48.3213 300.996 32.415 300.996 32.415C300.374 24.442 291.768 19.5917 284.804 19.5917L293.188 62.9499C303.879 62.9125 309.646 56.7829 312.663 50.2768C312.663 50.2768 319.095 36.1754 319.317 35.536C319.361 36.1374 323.93 62.9499 323.93 62.9499C334.667 62.9499 340.433 57.1961 343.539 50.9162L358.577 19.5923C348.019 19.5923 342.429 25.7214 339.591 32.2648V32.2642ZM216.309 0.262996L207.613 59.7162L205.839 67.0492C206.061 67.0492 206.327 67.0872 206.549 67.0872C215.909 66.9744 222.564 60.0172 223.805 51.2552L228.819 17.1476C230.327 6.73104 223.007 0.26359 216.309 0.26359V0.262996Z" fill="#D9D9D9"/>
</svg>
